<mxfile host="Electron" agent="Mozilla/5.0 (Macintosh; Intel Mac OS X 10_15_7) AppleWebKit/537.36 (KHTML, like Gecko) draw.io/24.7.8 Chrome/128.0.6613.36 Electron/32.0.1 Safari/537.36" version="24.7.8">
  <diagram name="Page-1" id="jIS80sRrdYh3s8-x3KUP">
    <mxGraphModel dx="1114" dy="1214" grid="1" gridSize="10" guides="1" tooltips="1" connect="1" arrows="1" fold="1" page="1" pageScale="1" pageWidth="827" pageHeight="1169" math="0" shadow="0">
      <root>
        <mxCell id="0" />
        <mxCell id="1" parent="0" />
        <mxCell id="RmKGCodyMOMKhlVE8LaW-3" value="" style="edgeStyle=orthogonalEdgeStyle;rounded=0;orthogonalLoop=1;jettySize=auto;html=1;" edge="1" parent="1" source="RmKGCodyMOMKhlVE8LaW-1" target="RmKGCodyMOMKhlVE8LaW-2">
          <mxGeometry relative="1" as="geometry" />
        </mxCell>
        <mxCell id="RmKGCodyMOMKhlVE8LaW-1" value="&lt;font style=&quot;font-size: 18px;&quot;&gt;Thread 1&lt;/font&gt;" style="rounded=1;whiteSpace=wrap;html=1;fontFamily=Helvetica Neue;fontSize=18;" vertex="1" parent="1">
          <mxGeometry x="180" y="100" width="120" height="60" as="geometry" />
        </mxCell>
        <mxCell id="RmKGCodyMOMKhlVE8LaW-5" style="edgeStyle=orthogonalEdgeStyle;rounded=0;orthogonalLoop=1;jettySize=auto;html=1;" edge="1" parent="1" source="RmKGCodyMOMKhlVE8LaW-2" target="RmKGCodyMOMKhlVE8LaW-4">
          <mxGeometry relative="1" as="geometry" />
        </mxCell>
        <mxCell id="RmKGCodyMOMKhlVE8LaW-2" value="&lt;font style=&quot;font-size: 18px;&quot;&gt;T&lt;/font&gt;" style="rounded=1;whiteSpace=wrap;html=1;fontFamily=Helvetica Neue;fontSize=18;dashed=1;" vertex="1" parent="1">
          <mxGeometry x="374" y="100" width="56" height="60" as="geometry" />
        </mxCell>
        <mxCell id="RmKGCodyMOMKhlVE8LaW-4" value="&lt;font style=&quot;font-size: 18px;&quot;&gt;Thread 2&lt;/font&gt;" style="rounded=1;whiteSpace=wrap;html=1;fontFamily=Helvetica Neue;fontSize=18;" vertex="1" parent="1">
          <mxGeometry x="500" y="100" width="120" height="60" as="geometry" />
        </mxCell>
        <mxCell id="RmKGCodyMOMKhlVE8LaW-7" value="" style="edgeStyle=orthogonalEdgeStyle;rounded=0;orthogonalLoop=1;jettySize=auto;html=1;" edge="1" parent="1" source="RmKGCodyMOMKhlVE8LaW-8" target="RmKGCodyMOMKhlVE8LaW-10">
          <mxGeometry relative="1" as="geometry" />
        </mxCell>
        <mxCell id="RmKGCodyMOMKhlVE8LaW-8" value="&lt;font style=&quot;font-size: 18px;&quot;&gt;Thread 1&lt;/font&gt;" style="rounded=1;whiteSpace=wrap;html=1;fontFamily=Helvetica Neue;fontSize=18;" vertex="1" parent="1">
          <mxGeometry x="180" y="270" width="120" height="60" as="geometry" />
        </mxCell>
        <mxCell id="RmKGCodyMOMKhlVE8LaW-10" value="&lt;font style=&quot;font-size: 18px;&quot;&gt;T&lt;/font&gt;" style="rounded=1;whiteSpace=wrap;html=1;fontFamily=Helvetica Neue;fontSize=18;dashed=1;" vertex="1" parent="1">
          <mxGeometry x="374" y="270" width="56" height="60" as="geometry" />
        </mxCell>
        <mxCell id="RmKGCodyMOMKhlVE8LaW-12" style="edgeStyle=orthogonalEdgeStyle;rounded=0;orthogonalLoop=1;jettySize=auto;html=1;entryX=1;entryY=0.5;entryDx=0;entryDy=0;" edge="1" parent="1" source="RmKGCodyMOMKhlVE8LaW-11" target="RmKGCodyMOMKhlVE8LaW-10">
          <mxGeometry relative="1" as="geometry" />
        </mxCell>
        <mxCell id="RmKGCodyMOMKhlVE8LaW-11" value="&lt;font style=&quot;font-size: 18px;&quot;&gt;Thread 2&lt;/font&gt;" style="rounded=1;whiteSpace=wrap;html=1;fontFamily=Helvetica Neue;fontSize=18;" vertex="1" parent="1">
          <mxGeometry x="500" y="270" width="120" height="60" as="geometry" />
        </mxCell>
      </root>
    </mxGraphModel>
  </diagram>
</mxfile>
